<svg width="191" height="18" viewBox="0 0 191 18" fill="none" xmlns="http://www.w3.org/2000/svg">
<rect width="18" height="18" fill="black"/>
<path d="M13.4298 0L3.15137 10.2183H6.96375L4.03334 17.9711L14.5575 7.75214H10.7444L13.4298 0Z" fill="#EEFF00"/>
<path d="M179.975 11.3265C179.975 7.48162 181.493 4.95917 185.264 4.95917C189.036 4.95917 190.554 7.23672 190.554 11.0816V12.4286H182.473C182.644 14.1428 183.33 15.4898 186.195 15.4898C187.175 15.4898 188.13 15.4898 189.722 15.049V17.2041C187.811 17.6939 187.126 17.6939 186.195 17.6939C180.66 17.6939 179.975 13.751 179.975 11.3265ZM182.424 10.2245H188.105C188.056 8.09386 187.248 7.16325 185.264 7.16325C183.379 7.16325 182.546 8.2408 182.424 10.2245Z" fill="black"/>
<path d="M161.356 5.20416H177.519V17.4491H175.07V7.40824H170.662V17.4491H168.213V7.40824H163.805V17.4491H161.356V5.20416Z" fill="black"/>
<path d="M153.039 17.6939C149.317 17.6939 147.186 15.1714 147.186 11.3265C147.186 7.48162 149.317 4.95917 153.039 4.95917C156.762 4.95917 158.892 7.48162 158.892 11.3265C158.892 15.1714 156.762 17.6939 153.039 17.6939ZM149.635 11.3265C149.635 14.5102 150.517 15.4898 153.039 15.4898C155.562 15.4898 156.443 14.5102 156.443 11.3265C156.443 8.14284 155.562 7.16325 153.039 7.16325C150.517 7.16325 149.635 8.14284 149.635 11.3265Z" fill="black"/>
<path d="M135.449 13.653C137.678 15.049 138.829 15.4898 140.641 15.4898C142.233 15.4898 142.796 14.8041 142.796 14.0449C142.796 13.1877 142.159 12.7224 139.906 12.2326C136.404 11.4735 135.449 10.3224 135.449 8.38774C135.449 6.35509 137.188 4.95917 139.808 4.95917C141.449 4.95917 143.066 5.39998 144.266 6.23264V8.43672C142.478 7.55509 140.91 7.16325 139.564 7.16325C138.315 7.16325 137.898 7.70202 137.898 8.31427C137.898 8.99998 138.217 9.46529 140.298 10.0286C143.923 11.0081 145.245 11.7673 145.245 14.0204C145.245 16.102 143.506 17.6939 140.641 17.6939C138.731 17.6939 137.237 17.3265 135.449 16.1265V13.653Z" fill="black"/>
<path d="M122.673 11.3265C122.673 7.48162 124.191 4.95917 127.962 4.95917C131.734 4.95917 133.252 7.23672 133.252 11.0816V12.4286H125.171C125.342 14.1428 126.028 15.4898 128.893 15.4898C129.873 15.4898 130.828 15.4898 132.42 15.049V17.2041C130.509 17.6939 129.824 17.6939 128.893 17.6939C123.358 17.6939 122.673 13.751 122.673 11.3265ZM125.122 10.2245H130.803C130.754 8.09386 129.946 7.16325 127.962 7.16325C126.077 7.16325 125.244 8.2408 125.122 10.2245Z" fill="black"/>
<path d="M108.094 17.4491H104.127L100.771 5.20416H103.318L105.939 15.0491H106.331L109.123 5.20416H113.09L115.882 15.0491H116.274L118.894 5.20416H121.441L118.086 17.4491H114.118L111.302 7.60416H110.91L108.094 17.4491Z" fill="black"/>
<path d="M91.9718 9.12253C93.6861 9.12253 94.6412 9.61232 95.3759 10.5919V7.40824H89.0085V5.20416H97.8249V15.0001H99.2943V17.4491H95.3759V16.2246C94.6412 17.2042 93.6861 17.694 91.9718 17.694C88.9841 17.694 87.5881 15.5389 87.5881 13.4082C87.5881 11.2776 88.9841 9.12253 91.9718 9.12253ZM90.0371 13.4082C90.0371 14.6327 90.9187 15.4899 92.7065 15.4899C94.4943 15.4899 95.3759 14.6327 95.3759 13.4082C95.3759 12.1838 94.4943 11.3266 92.7065 11.3266C90.9187 11.3266 90.0371 12.1838 90.0371 13.4082Z" fill="black"/>
<path d="M71.9733 0.306091H77.8999V2.51017H74.4223V5.20405H77.8999V7.40813H74.4223V17.4489H71.9733V7.40813H70.0142V5.20405H71.9733V0.306091Z" fill="black"/>
<path d="M54.757 17.4489V7.40813H52.7979V5.20405H54.757V0.306091H57.206V5.20405H60.4387V7.40813H57.206V15.2449H60.4387V17.4489H54.757Z" fill="black"/>
<path d="M48.1458 0.306091H50.5947V17.4489H48.1458V0.306091Z" fill="black"/>
<path d="M38.3837 9.12253C40.098 9.12253 41.0531 9.61232 41.7878 10.5919V7.40824H35.4204V5.20416H44.2367V15.0001H45.7061V17.4491H41.7878V16.2246C41.0531 17.2042 40.098 17.694 38.3837 17.694C35.3959 17.694 34 15.5389 34 13.4082C34 11.2776 35.3959 9.12253 38.3837 9.12253ZM36.449 13.4082C36.449 14.6327 37.3306 15.4899 39.1184 15.4899C40.9061 15.4899 41.7878 14.6327 41.7878 13.4082C41.7878 12.1838 40.9061 11.3266 39.1184 11.3266C37.3306 11.3266 36.449 12.1838 36.449 13.4082Z" fill="black"/>
</svg>
