<svg width="191" height="18" viewBox="0 0 191 18" fill="none" xmlns="http://www.w3.org/2000/svg">
<g clip-path="url(#clip0_4001_102)">
<path d="M18 0H0V18H18V0Z" fill="white"/>
<path d="M13.4298 0L3.15137 10.2183H6.96375L4.03334 17.9711L14.5575 7.75214H10.7444L13.4298 0Z" fill="black"/>
<path d="M179.975 11.3263C179.975 7.48143 181.493 4.95898 185.264 4.95898C189.036 4.95898 190.554 7.23653 190.554 11.0814V12.4284H182.473C182.644 14.1426 183.33 15.4896 186.195 15.4896C187.175 15.4896 188.13 15.4896 189.722 15.0488V17.2039C187.811 17.6937 187.126 17.6937 186.195 17.6937C180.66 17.6937 179.975 13.7508 179.975 11.3263ZM182.424 10.2243H188.105C188.056 8.09367 187.248 7.16306 185.264 7.16306C183.379 7.16306 182.546 8.24061 182.424 10.2243Z" fill="white"/>
<path d="M161.355 5.2041H177.518V17.449H175.069V7.40818H170.661V17.449H168.212V7.40818H163.804V17.449H161.355V5.2041Z" fill="white"/>
<path d="M153.039 17.6937C149.317 17.6937 147.186 15.1712 147.186 11.3263C147.186 7.48143 149.317 4.95898 153.039 4.95898C156.762 4.95898 158.892 7.48143 158.892 11.3263C158.892 15.1712 156.762 17.6937 153.039 17.6937ZM149.635 11.3263C149.635 14.51 150.517 15.4896 153.039 15.4896C155.562 15.4896 156.443 14.51 156.443 11.3263C156.443 8.14265 155.562 7.16306 153.039 7.16306C150.517 7.16306 149.635 8.14265 149.635 11.3263Z" fill="white"/>
<path d="M135.449 13.6528C137.678 15.0488 138.829 15.4896 140.641 15.4896C142.233 15.4896 142.796 14.8039 142.796 14.0447C142.796 13.1875 142.159 12.7222 139.906 12.2324C136.404 11.4733 135.449 10.3222 135.449 8.38755C135.449 6.3549 137.188 4.95898 139.808 4.95898C141.449 4.95898 143.066 5.39979 144.266 6.23245V8.43653C142.478 7.5549 140.91 7.16306 139.564 7.16306C138.315 7.16306 137.898 7.70183 137.898 8.31408C137.898 8.99979 138.217 9.4651 140.298 10.0284C143.923 11.0079 145.245 11.7671 145.245 14.0202C145.245 16.1018 143.506 17.6937 140.641 17.6937C138.731 17.6937 137.237 17.3263 135.449 16.1263V13.6528Z" fill="white"/>
<path d="M122.674 11.3263C122.674 7.48143 124.192 4.95898 127.963 4.95898C131.735 4.95898 133.253 7.23653 133.253 11.0814V12.4284H125.172C125.343 14.1426 126.029 15.4896 128.894 15.4896C129.874 15.4896 130.829 15.4896 132.421 15.0488V17.2039C130.51 17.6937 129.825 17.6937 128.894 17.6937C123.359 17.6937 122.674 13.7508 122.674 11.3263ZM125.123 10.2243H130.804C130.755 8.09367 129.947 7.16306 127.963 7.16306C126.078 7.16306 125.245 8.24061 125.123 10.2243Z" fill="white"/>
<path d="M108.094 17.449H104.127L100.771 5.2041H103.318L105.939 15.049H106.331L109.123 5.2041H113.09L115.882 15.049H116.274L118.894 5.2041H121.441L118.086 17.449H114.118L111.302 7.6041H110.91L108.094 17.449Z" fill="white"/>
<path d="M91.9716 9.12247C93.6859 9.12247 94.641 9.61226 95.3757 10.5918V7.40818H89.0083V5.2041H97.8247V15H99.2941V17.449H95.3757V16.2245C94.641 17.2041 93.6859 17.6939 91.9716 17.6939C88.9839 17.6939 87.5879 15.5388 87.5879 13.4081C87.5879 11.2775 88.9839 9.12247 91.9716 9.12247ZM90.0369 13.4081C90.0369 14.6326 90.9185 15.4898 92.7063 15.4898C94.4941 15.4898 95.3757 14.6326 95.3757 13.4081C95.3757 12.1837 94.4941 11.3265 92.7063 11.3265C90.9185 11.3265 90.0369 12.1837 90.0369 13.4081Z" fill="white"/>
<path d="M71.9728 0.305664H77.8994V2.50974H74.4218V5.20362H77.8994V7.4077H74.4218V17.4485H71.9728V7.4077H70.0137V5.20362H71.9728V0.305664Z" fill="white"/>
<path d="M54.7579 17.4485V7.4077H52.7988V5.20362H54.7579V0.305664H57.2069V5.20362H60.4396V7.4077H57.2069V15.2445H60.4396V17.4485H54.7579Z" fill="white"/>
<path d="M48.1465 0.305664H50.5954V17.4485H48.1465V0.305664Z" fill="white"/>
<path d="M38.3837 9.12247C40.098 9.12247 41.0531 9.61226 41.7878 10.5918V7.40818H35.4204V5.2041H44.2367V15H45.7061V17.449H41.7878V16.2245C41.0531 17.2041 40.098 17.6939 38.3837 17.6939C35.3959 17.6939 34 15.5388 34 13.4081C34 11.2775 35.3959 9.12247 38.3837 9.12247ZM36.449 13.4081C36.449 14.6326 37.3306 15.4898 39.1184 15.4898C40.9061 15.4898 41.7878 14.6326 41.7878 13.4081C41.7878 12.1837 40.9061 11.3265 39.1184 11.3265C37.3306 11.3265 36.449 12.1837 36.449 13.4081Z" fill="white"/>
</g>
<defs>
<clipPath id="clip0_4001_102">
<rect width="191" height="18" fill="white"/>
</clipPath>
</defs>
</svg>
